<svg xmlns="http://www.w3.org/2000/svg" width="256" height="256" viewBox="0 0 100 100"><rect width="100" height="100" rx="50" fill="#e1769c"></rect><path d="M27.35 31.60L27.35 31.60Q30.65 31.60 32.78 32.58Q34.90 33.55 36.55 34.85L36.55 34.85Q37.55 35.60 38.08 35.02Q38.60 34.45 38.80 32.30L38.80 32.30L39.95 32.30Q39.85 34.15 39.80 36.80Q39.75 39.45 39.75 43.80L39.75 43.80L38.60 43.80Q38.25 41.65 37.95 40.38Q37.65 39.10 37.23 38.20Q36.80 37.30 36.10 36.40L36.10 36.40Q34.55 34.35 32.20 33.43Q29.85 32.50 27.25 32.50L27.25 32.50Q24.80 32.50 22.83 33.73Q20.85 34.95 19.43 37.25Q18.00 39.55 17.23 42.80Q16.45 46.05 16.45 50.10L16.45 50.10Q16.45 54.30 17.30 57.53Q18.15 60.75 19.68 62.95Q21.20 65.15 23.28 66.28Q25.35 67.40 27.75 67.40L27.75 67.40Q30.00 67.40 32.45 66.50Q34.90 65.60 36.30 63.60L36.30 63.60Q37.40 62.15 37.83 60.45Q38.25 58.75 38.60 55.70L38.60 55.70L39.75 55.70Q39.75 60.25 39.80 63.03Q39.85 65.80 39.95 67.70L39.95 67.70L38.80 67.70Q38.60 65.55 38.13 65Q37.65 64.45 36.55 65.15L36.55 65.15Q34.70 66.45 32.63 67.42Q30.55 68.40 27.30 68.40L27.30 68.40Q22.55 68.40 18.98 66.25Q15.40 64.10 13.43 60.05Q11.45 56 11.45 50.30L11.45 50.30Q11.45 44.70 13.50 40.50Q15.55 36.30 19.13 33.95Q22.70 31.60 27.35 31.60ZM88.55 32.30L88.55 32.30L88.55 33.30Q87.60 33.50 86.45 34.43Q85.30 35.35 84.60 37.65L84.60 37.65L75.15 67.95Q75.05 67.95 74.95 67.95Q74.85 67.95 74.75 67.95L74.75 67.95Q74.65 67.95 74.55 67.95Q74.45 67.95 74.35 67.95L74.35 67.95L63.75 36.50Q63.10 34.55 62.30 33.95Q61.50 33.35 60.80 33.30L60.80 33.30L60.80 32.30Q61.70 32.35 63.05 32.40Q64.40 32.45 65.65 32.45L65.65 32.45Q67.60 32.45 69.30 32.40Q71 32.35 72.05 32.30L72.05 32.30L72.05 33.30Q70.55 33.35 69.68 33.60Q68.80 33.85 68.68 34.70Q68.55 35.55 69.15 37.50L69.15 37.50L76.60 60.55L75.90 61.15L82.50 40.40Q83.40 37.65 83.33 36.13Q83.25 34.60 82.20 33.98Q81.15 33.35 79.05 33.30L79.05 33.30L79.05 32.30Q80.50 32.35 82 32.40Q83.50 32.45 84.80 32.45L84.80 32.45Q86.10 32.45 86.95 32.40Q87.80 32.35 88.55 32.30ZM53.60 32.30L53.60 32.30L53.60 33.30Q52.30 33.40 51.73 33.80Q51.15 34.20 51.18 35.08Q51.20 35.95 51.70 37.50L51.70 37.50L59.45 61.15L58.20 62.40L65.20 40.05L65.95 41.25L57.70 67.95Q57.60 67.95 57.50 67.95Q57.40 67.95 57.30 67.95L57.30 67.95Q57.20 67.95 57.10 67.95Q57 67.95 56.90 67.95L56.90 67.95L46.30 36.50Q45.65 34.55 44.65 33.95Q43.65 33.35 42.85 33.30L42.85 33.30L42.85 32.30Q43.85 32.35 45.33 32.40Q46.80 32.45 48.20 32.45L48.20 32.45Q49.85 32.45 51.28 32.40Q52.70 32.35 53.60 32.30Z" fill="#ffffff"></path></svg>